<svg xmlns="http://www.w3.org/2000/svg" width="28.614" height="28.614" viewBox="0 0 28.614 28.614">
    <defs>
        <style>
            .cls-1{fill:#27ade4}.cls-2{fill:#2d78bc}.cls-3{fill:#fff}
        </style>
    </defs>
    <g id="Group_523" data-name="Group 523" transform="translate(-1192.968 -2381.324)">
        <ellipse id="Ellipse_2" cx="14.307" cy="14.307" class="cls-1" data-name="Ellipse 2" rx="14.307" ry="14.307" transform="translate(1192.968 2381.324)"/>
        <path id="Path_128" d="M34.208 161.737l-.447-1.1-.444 1.1m10.724-.439a.6.6 0 0 1-.323.057h-.792v-.614h.8a.662.662 0 0 1 .309.049.255.255 0 0 1 .137.245.283.283 0 0 1-.134.263m5.652.439l-.451-1.1-.449 1.1zm-10.533 1.193h-.669v-2.166l-.946 2.166h-.573l-.948-2.168v2.168h-1.328l-.251-.617h-1.357l-.253.617h-.708l1.168-2.766h.969l1.109 2.619v-2.619h1.064l.853 1.876.784-1.876h1.086v2.766zm2.665 0h-2.179v-2.766h2.179v.576H40.3v.5h1.49v.567H40.3v.552h1.526v.572zm3.072-2.021a.778.778 0 0 1-.46.737.756.756 0 0 1 .323.233.8.8 0 0 1 .108.507v.544h-.658v-.349a.84.84 0 0 0-.1-.539c-.1-.1-.24-.118-.475-.118h-.7v1.006h-.652v-2.766h1.5a1.516 1.516 0 0 1 .79.132.648.648 0 0 1 .33.613m1.044 2.021h-.665v-2.766h.665zm7.72 0h-.924l-1.24-2.076v2.076h-1.332l-.253-.617H48.56l-.246.617h-.764a1.359 1.359 0 0 1-.946-.306 1.4 1.4 0 0 1-.348-1.056 1.482 1.482 0 0 1 .352-1.081 1.312 1.312 0 0 1 .99-.323h.631v.593h-.618a.622.622 0 0 0-.5.164.923.923 0 0 0-.188.627.967.967 0 0 0 .18.649.622.622 0 0 0 .454.143h.293l.919-2.175h.977l1.1 2.616v-2.616h.993l1.146 1.926v-1.926h.668v2.766zm-21.541.543h1.107l.251-.615h.562l.251.615h2.192V163l.2.471h1.138l.2-.478v.477h5.449v-1.009h.105c.074 0 .1.01.1.133v.875h2.818v-.235a2.208 2.208 0 0 0 1.046.235h1.185l.254-.615h.563l.248.615h2.284v-.584l.346.584h1.831v-3.858h-1.827v.456l-.253-.456h-1.86v.456l-.233-.456h-2.511a2.232 2.232 0 0 0-1.088.225v-.225h-1.733v.225a1.064 1.064 0 0 0-.736-.225h-6.331l-.425 1-.436-1h-1.995v.456l-.219-.456h-1.7l-.79 1.834-.906 2.023z" class="cls-2" data-name="Path 128" transform="translate(1163.642 2231.345)"/>
        <path id="Path_129" d="M34.208 165.479l-.447-1.1-.444 1.1m10.724-.439a.6.6 0 0 1-.323.057h-.792v-.614h.8a.661.661 0 0 1 .309.049.255.255 0 0 1 .137.245.283.283 0 0 1-.134.263m5.652.439l-.451-1.1-.449 1.1zm-10.535 1.193h-.669v-2.166l-.946 2.166h-.573l-.947-2.172v2.168h-1.327l-.251-.617h-1.357l-.253.617h-.708l1.168-2.766h.969l1.109 2.619v-2.619h1.064l.853 1.876.784-1.876h1.086v2.766zm2.665 0h-2.177v-2.766h2.179v.576H40.3v.5h1.49v.567H40.3v.552h1.526v.572zm3.072-2.021a.778.778 0 0 1-.46.737.756.756 0 0 1 .323.233.8.8 0 0 1 .108.507v.544h-.658v-.349a.84.84 0 0 0-.1-.539c-.1-.1-.24-.118-.475-.118h-.7v1.006h-.652v-2.766h1.5a1.516 1.516 0 0 1 .79.132.648.648 0 0 1 .33.613m1.044 2.021h-.665v-2.766h.665zm7.72 0h-.924L51.5 164.6v2.076h-1.332l-.253-.617H48.56l-.246.617h-.764a1.359 1.359 0 0 1-.946-.306 1.4 1.4 0 0 1-.348-1.056 1.482 1.482 0 0 1 .352-1.081 1.312 1.312 0 0 1 .99-.323h.631v.593h-.618a.622.622 0 0 0-.5.164.923.923 0 0 0-.188.627.967.967 0 0 0 .18.649.622.622 0 0 0 .454.143h.293l.919-2.175h.977l1.1 2.616v-2.616h.993l1.146 1.926v-1.926h.668v2.766zm-21.541.543h1.109l.251-.615h.562l.251.615h2.192v-.47l.2.471h1.138l.2-.478v.477h5.449v-1.009h.105c.074 0 .1.01.1.133v.875h2.818v-.235a2.209 2.209 0 0 0 1.046.235h1.185l.254-.615h.563l.248.615h2.284v-.584l.346.584h1.831v-3.858h-1.827v.456l-.253-.456h-1.86v.456l-.233-.456h-2.511a2.232 2.232 0 0 0-1.088.225v-.225h-1.733v.225a1.064 1.064 0 0 0-.736-.225h-6.331l-.425 1-.436-1h-1.995v.456l-.219-.456h-1.7l-.79 1.834-.906 2.023z" class="cls-3" data-name="Path 129" transform="translate(1163.642 2227.829)"/>
        <path id="Path_130" d="M140.793 239.166V237.4h-1.634a1.35 1.35 0 0 0-.817.225v-.225h-1.786a1.224 1.224 0 0 0-.779.225v-.225h-3.19v.225a1.681 1.681 0 0 0-.88-.225h-2.1v.225a1.474 1.474 0 0 0-.919-.225h-2.358l-.539.59-.5-.59h-3.517v3.857h3.451l.555-.6.523.6h2.127v-.908h.209a2.188 2.188 0 0 0 .909-.136v1.041h1.752v-1.006h.085c.108 0 .118 0 .118.114v.892h5.33a1.51 1.51 0 0 0 .888-.247v.247h1.69a2.241 2.241 0 0 0 .957-.178 1.4 1.4 0 0 0 .427-1.905zm-12.129.617h-.814v.927h-1.268l-.8-.915-.835.915h-2.585v-2.765h2.624l.8.906.83-.906h2.084c.518 0 1.1.145 1.1.911s-.567.927-1.137.927zm3.927-.125a.813.813 0 0 1 .108.5v.548h-.655v-.346a.827.827 0 0 0-.106-.541c-.1-.1-.24-.123-.479-.123h-.7v1.01h-.655v-2.765h1.506a1.6 1.6 0 0 1 .785.131.648.648 0 0 1 .336.614.774.774 0 0 1-.462.736.711.711 0 0 1 .321.236zm2.682-1.14h-1.528v.5h1.491v.564h-1.491v.55h1.528v.574h-2.178v-2.765h2.178v.572zm1.662 2.193h-1.271v-.593h1.266a.378.378 0 0 0 .267-.069.247.247 0 0 0 .077-.18.239.239 0 0 0-.08-.183.339.339 0 0 0-.232-.061c-.61-.021-1.374.019-1.374-.856a.816.816 0 0 1 .933-.823h1.308v.588h-1.2a.44.44 0 0 0-.262.05.233.233 0 0 0 .045.405.751.751 0 0 0 .254.031l.352.01a1.043 1.043 0 0 1 .745.222.773.773 0 0 1 .195.585c.001.596-.366.874-1.024.874zm3.358-.267a1.1 1.1 0 0 1-.811.267h-1.26v-.593h1.255a.366.366 0 0 0 .264-.069.244.244 0 0 0 .077-.18.229.229 0 0 0-.08-.183.327.327 0 0 0-.23-.061c-.613-.021-1.377.019-1.377-.856a.819.819 0 0 1 .936-.823h1.275v.588h-1.164a.45.45 0 0 0-.264.05.216.216 0 0 0-.1.2.208.208 0 0 0 .143.206.732.732 0 0 0 .251.031l.354.01a1.02 1.02 0 0 1 .74.223.371.371 0 0 1 .061.068l-.022-.029a.908.908 0 0 1-.052 1.152zm-15.648-1.926l.714.806-.746.811h-1.6v-.55h1.433v-.564h-1.433v-.5zm1.554.815l1-1.09v2.216zm2.9-.476c0 .24-.156.365-.407.365h-.843v-.7h.851c.236-.004.4.093.4.334zm2.912-.04a.3.3 0 0 1-.135.265.617.617 0 0 1-.322.057h-.793v-.621h.8a.636.636 0 0 1 .312.05.263.263 0 0 1 .138.248z" class="cls-2" data-name="Path 130" transform="translate(1078.551 2158.261)"/>
        <path id="Path_131" d="M140.793 242.908v-1.77h-1.634a1.35 1.35 0 0 0-.817.225v-.225h-1.786a1.224 1.224 0 0 0-.779.225v-.225h-3.19v.225a1.681 1.681 0 0 0-.88-.225h-2.1v.225a1.474 1.474 0 0 0-.919-.225h-2.358l-.539.59-.5-.59h-3.517V245h3.451l.555-.6.523.6h2.127v-.908h.209a2.189 2.189 0 0 0 .909-.136v1.041h1.752v-1.006h.085c.108 0 .118 0 .118.114v.892h5.33a1.51 1.51 0 0 0 .888-.247v.247h1.69a2.241 2.241 0 0 0 .957-.178 1.4 1.4 0 0 0 .427-1.905zm-12.129.617h-.814v.927h-1.268l-.8-.915-.835.915h-2.585v-2.765h2.624l.8.906.83-.906h2.084c.518 0 1.1.145 1.1.911s-.567.927-1.137.927zm3.927-.125a.813.813 0 0 1 .108.5v.548h-.655v-.346a.827.827 0 0 0-.106-.541c-.1-.1-.24-.123-.479-.123h-.7v1.01h-.655v-2.765h1.506a1.6 1.6 0 0 1 .785.131.648.648 0 0 1 .336.614.774.774 0 0 1-.462.736.712.712 0 0 1 .321.236zm2.682-1.14h-1.528v.5h1.491v.564h-1.491v.55h1.528v.574h-2.178v-2.765h2.178v.572zm1.662 2.193h-1.271v-.593h1.266a.378.378 0 0 0 .267-.069.247.247 0 0 0 .077-.18.239.239 0 0 0-.08-.183.339.339 0 0 0-.232-.061c-.61-.021-1.374.019-1.374-.856a.816.816 0 0 1 .933-.823h1.308v.588h-1.2a.44.44 0 0 0-.262.05.233.233 0 0 0 .045.405.751.751 0 0 0 .254.031l.352.01a1.043 1.043 0 0 1 .745.222.773.773 0 0 1 .195.585c.001.596-.366.874-1.024.874zm3.358-.267a1.1 1.1 0 0 1-.811.267h-1.26v-.593h1.255a.366.366 0 0 0 .264-.069.244.244 0 0 0 .077-.18.229.229 0 0 0-.08-.183.327.327 0 0 0-.23-.061c-.613-.021-1.377.019-1.377-.856a.819.819 0 0 1 .936-.823h1.275v.588h-1.164a.45.45 0 0 0-.264.05.216.216 0 0 0-.1.2.209.209 0 0 0 .143.206.732.732 0 0 0 .251.031l.354.01a1.02 1.02 0 0 1 .74.223.371.371 0 0 1 .061.068l-.022-.029a.908.908 0 0 1-.052 1.152zm-15.648-1.926l.714.806-.746.811h-1.6v-.55h1.433v-.564h-1.433v-.5zm1.554.815l1-1.09v2.215zm2.9-.476c0 .24-.156.365-.407.365h-.843v-.7h.851c.236-.004.4.093.4.336zm2.912-.04a.3.3 0 0 1-.135.265.617.617 0 0 1-.322.057h-.793v-.621h.8a.635.635 0 0 1 .312.05.263.263 0 0 1 .138.248z" class="cls-3" data-name="Path 131" transform="translate(1078.551 2154.745)"/>
    </g>
</svg>
