<svg xmlns="http://www.w3.org/2000/svg" width="28.614" height="28.614" viewBox="0 0 28.614 28.614">
    <defs>
        <style>
            .cls-1{fill:#3c80ad}.cls-2{fill:#931b1d}.cls-3{fill:#f16622}.cls-4{fill:#f7981d}.cls-5{fill:#cb2026}.cls-6{fill:#fff}
        </style>
    </defs>
    <g id="Group_525" data-name="Group 525" transform="translate(-1126.522 -2381.324)">
        <ellipse id="Ellipse_3" cx="14.307" cy="14.307" class="cls-1" data-name="Ellipse 3" rx="14.307" ry="14.307" transform="translate(1126.522 2381.324)"/>
        <path id="Path_132" d="M57.821 121.955a6.589 6.589 0 1 0 4.466 11.462 6.615 6.615 0 0 0 .668-.706h-1.346a6.38 6.38 0 0 1-.49-.679h2.323a6.587 6.587 0 0 0 .383-.705h-3.09a6.416 6.416 0 0 1-.275-.692h3.64a6.576 6.576 0 0 0 .338-2.09 6.647 6.647 0 0 0-.151-1.412h-4.02a6.71 6.71 0 0 1 .187-.692H64.1a6.607 6.607 0 0 0-.284-.706h-3.081a6.358 6.358 0 0 1 .377-.692h2.322a6.545 6.545 0 0 0-.51-.705h-1.295a6.024 6.024 0 0 1 .659-.665 6.54 6.54 0 0 0-4.425-1.718z" class="cls-2" data-name="Path 132" transform="translate(1078.331 2266.732)"/>
        <path id="Path_133" d="M210.528 128.547a6.575 6.575 0 1 1-13.15 0 6.575 6.575 0 1 1 13.151 0s-.001-.002-.001 0z" class="cls-3" data-name="Path 133" transform="translate(941.061 2266.732)"/>
        <path id="Path_134" d="M210.528 129.758a6.575 6.575 0 1 1-13.15 0 6.575 6.575 0 1 1 13.151 0s-.001-.001-.001 0z" class="cls-4" data-name="Path 134" transform="translate(941.061 2265.594)"/>
        <path id="Path_135" d="M57.821 123.193a6.59 6.59 0 1 0 4.466 11.462 6.513 6.513 0 0 0 .668-.706h-1.346a6.325 6.325 0 0 1-.49-.678h2.323a6.642 6.642 0 0 0 .383-.706h-3.09a6.467 6.467 0 0 1-.275-.692h3.64a6.636 6.636 0 0 0 .187-3.5h-4.02a6.708 6.708 0 0 1 .187-.692H64.1a6.615 6.615 0 0 0-.284-.706h-3.081a6.417 6.417 0 0 1 .377-.692h2.322a6.666 6.666 0 0 0-.51-.706h-1.295a6.1 6.1 0 0 1 .659-.665 6.54 6.54 0 0 0-4.425-1.718z" class="cls-5" data-name="Path 135" transform="translate(1078.331 2265.569)"/>
        <g id="Group_517" data-name="Group 517" transform="translate(1130.243 2393.65)">
            <path id="Path_136" d="M182.51 212.06l.088-.6c-.048 0-.118.02-.181.02-.244 0-.271-.13-.255-.226l.2-1.217h.37l.089-.66h-.349l.071-.41h-.7c-.015.015-.413 2.307-.413 2.586a.52.52 0 0 0 .558.595 1.84 1.84 0 0 0 .522-.088z" class="cls-6" data-name="Path 136" transform="translate(-174.194 -208.681)"/>
            <path id="Path_137" d="M203.035 216.094a1.1 1.1 0 0 0 1.209 1.227 1.772 1.772 0 0 0 .739-.115l.124-.677a2.165 2.165 0 0 1-.743.174c-.752 0-.62-.562-.62-.562h1.423a5.087 5.087 0 0 0 .091-.64.94.94 0 0 0-1-1.025c-.702-.001-1.223.759-1.223 1.618zm1.228-.991c.395 0 .322.445.322.481h-.777c-.001-.046.073-.484.455-.484z" class="cls-6" data-name="Path 137" transform="translate(-194.497 -213.852)"/>
            <path id="Path_138" d="M267.654 207.528l.125-.766a1.676 1.676 0 0 1-.579.174.694.694 0 0 1-.7-.788c0-.829.427-1.285.9-1.285a1.244 1.244 0 0 1 .643.2l.114-.743a2.5 2.5 0 0 0-.788-.173c-.808 0-1.595.7-1.595 2.023 0 .874.425 1.453 1.26 1.453a3.219 3.219 0 0 0 .62-.095z" class="cls-6" data-name="Path 138" transform="translate(-253.456 -204.149)"/>
            <path id="Path_139" d="M115.339 214.654a2.419 2.419 0 0 0-.848.154l-.1.6a2.213 2.213 0 0 1 .763-.123c.261 0 .451.029.451.242a.451.451 0 0 1-.023.176s-.205-.017-.3-.017c-.605 0-1.241.259-1.241 1.04a.665.665 0 0 0 .676.756.909.909 0 0 0 .718-.322l-.023.268h.616l.275-1.933a.828.828 0 0 0-.964-.841zm.15 1.573c.013.118-.074.672-.5.672a.256.256 0 0 1-.274-.265c0-.192.1-.422.617-.422a.458.458 0 0 1 .157.015z" class="cls-6" data-name="Path 139" transform="translate(-110.873 -214.02)"/>
            <path id="Path_140" d="M150.137 217.541c.157 0 1.059.04 1.059-.892 0-.872-.834-.7-.834-1.05 0-.174.136-.229.384-.229.1 0 .478.032.478.032l.089-.62a3.275 3.275 0 0 0-.646-.055c-.518 0-1.044.206-1.044.916 0 .8.877.723.877 1.061 0 .226-.245.244-.434.244a2.275 2.275 0 0 1-.622-.107l-.093.613a2.188 2.188 0 0 0 .786.087z" class="cls-6" data-name="Path 140" transform="translate(-144.055 -214.089)"/>
            <path id="Path_141" d="M361.669 205.422l-.151.939a.925.925 0 0 0-.676-.364c-.642 0-1.176.775-1.176 1.666 0 .575.285 1.138.868 1.138a.873.873 0 0 0 .652-.293l-.031.25h.681l.535-3.336zm-.325 1.831c0 .37-.183.865-.563.865-.252 0-.37-.212-.37-.544 0-.544.244-.9.551-.9.253-.004.382.17.382.579z" class="cls-6" data-name="Path 141" transform="translate(-341.671 -205.343)"/>
            <path id="Path_142" d="M62.294 208.748l.427-2.519.062 2.519h.483l.9-2.519-.4 2.519h.717l.552-3.34h-1.109l-.69 2.049-.036-2.049h-1.021l-.56 3.34z" class="cls-6" data-name="Path 142" transform="translate(-61.619 -205.332)"/>
            <path id="Path_143" d="M240.266 217.937c.2-1.161.242-2.1.728-1.932a2.719 2.719 0 0 1 .26-.813.727.727 0 0 0-.135-.009c-.313 0-.545.429-.545.429l.062-.394h-.652l-.436 2.719z" class="cls-6" data-name="Path 143" transform="translate(-228.805 -214.516)"/>
            <path id="Path_144" d="M303.3 214.654a2.416 2.416 0 0 0-.848.154l-.1.6a2.209 2.209 0 0 1 .763-.123c.26 0 .451.029.451.242a.448.448 0 0 1-.023.176s-.205-.017-.3-.017c-.605 0-1.241.259-1.241 1.04a.665.665 0 0 0 .676.756.907.907 0 0 0 .718-.322l-.023.268h.617l.275-1.933a.828.828 0 0 0-.965-.841zm.15 1.573c.013.118-.074.672-.5.672a.255.255 0 0 1-.273-.265c0-.192.1-.422.616-.422a.459.459 0 0 1 .159.015z" class="cls-6" data-name="Path 144" transform="translate(-287.488 -214.02)"/>
            <path id="Path_145" d="M337.613 217.937c.2-1.161.242-2.1.728-1.932a2.7 2.7 0 0 1 .26-.813.738.738 0 0 0-.135-.009c-.314 0-.546.429-.546.429l.062-.394h-.652l-.436 2.719h.719z" class="cls-6" data-name="Path 145" transform="translate(-320.274 -214.516)"/>
        </g>
    </g>
</svg>
