<svg xmlns="http://www.w3.org/2000/svg" width="28.614" height="28.614" viewBox="0 0 28.614 28.614">
    <defs>
        <style>
            .cls-1{fill:#e3e2e2}.cls-2{fill:#1a80ad}.cls-3{fill:#1a5b80}
        </style>
    </defs>
    <g id="Group_524" data-name="Group 524" transform="translate(-1160.044 -2381.324)">
        <ellipse id="Ellipse_4" cx="14.307" cy="14.307" class="cls-1" data-name="Ellipse 4" rx="14.307" ry="14.307" transform="translate(1160.044 2381.324)"/>
        <g id="Group_518" data-name="Group 518" transform="translate(1174.528 2392.25)">
            <path id="Path_146" d="M312.631 197.133a6.343 6.343 0 0 0-1.426.23l-.111.9a3.887 3.887 0 0 1 1.219-.259c.471-.014.748.086.651.489-1.4 0-2.34.287-2.534 1.192-.277 1.551 1.426 1.508 2.1.833l-.083.373h1.253l.54-2.471c.219-1.043-.74-1.301-1.609-1.287zm.083 2.528a.624.624 0 0 1-.651.489c-.277.014-.526-.23-.346-.518.138-.244.526-.3.762-.3h.3c-.023.114-.037.214-.065.329z" class="cls-2" data-name="Path 146" transform="translate(-306.143 -196.157)"/>
            <path id="Path_147" d="M375.581 180.963l-1.031 4.74h1.266l1.044-4.74z" class="cls-2" data-name="Path 147" transform="translate(-366.42 -180.963)"/>
            <path id="Path_148" d="M243.244 181.2h-2.318l-1.027 4.726h1.346l.347-1.566h.957a1.9 1.9 0 0 0 1.929-1.551 1.239 1.239 0 0 0-1.234-1.609zm-.041 1.609a.865.865 0 0 1-.792.646h-.624l.278-1.293h.666a.487.487 0 0 1 .469.649z" class="cls-2" data-name="Path 148" transform="translate(-239.899 -181.188)"/>
        </g>
        <g id="Group_519" data-name="Group 519" transform="translate(1162.43 2392.229)">
            <path id="Path_149" d="M112.242 197.133a5.934 5.934 0 0 0-1.4.23l-.109.9a3.61 3.61 0 0 1 1.19-.259c.465-.014.739.086.656.489-1.381 0-2.311.287-2.5 1.192-.274 1.551 1.409 1.508 2.065.833l-.082.373h1.245l.533-2.471c.221-1.043-.74-1.301-1.598-1.287zm.1 2.528a.634.634 0 0 1-.657.489.332.332 0 0 1-.328-.518c.136-.244.52-.3.739-.3h.315a2.675 2.675 0 0 0-.073.329z" class="cls-3" data-name="Path 149" transform="translate(-105.793 -196.135)"/>
            <path id="Path_150" d="M175.583 198.272h1.245l.2 2.2 1.218-2.2h1.285l-2.957 5.267h-1.392l.91-1.548z" class="cls-3" data-name="Path 150" transform="translate(-166.991 -197.206)"/>
            <path id="Path_151" d="M42.873 181.2H40.55l-1.03 4.726h1.364l.334-1.566h.974a1.9 1.9 0 0 0 1.92-1.551 1.235 1.235 0 0 0-1.239-1.609zm-.042 1.609a.85.85 0 0 1-.779.646h-.64l.292-1.293h.668a.479.479 0 0 1 .46.649z" class="cls-3" data-name="Path 151" transform="translate(-39.52 -181.166)"/>
            <path id="Path_152" d="M414.087 181.245v-.559h-.209v-.075h.5v.075h-.21v.559z" class="cls-3" data-name="Path 152" transform="translate(-391.277 -180.611)"/>
            <path id="Path_153" d="M423.575 181.245v-.634h.126l.15.449.03.093.033-.1.152-.441h.113v.634h-.079v-.531l-.185.531h-.075l-.184-.54v.54z" class="cls-3" data-name="Path 153" transform="translate(-400.388 -180.611)"/>
        </g>
    </g>
</svg>
